<?xml version="1.0" encoding="utf-8"?>
<!-- Generator: Adobe Illustrator 27.4.0, SVG Export Plug-In . SVG Version: 6.00 Build 0)  -->
<svg version="1.1" id="Layer_1" xmlns="http://www.w3.org/2000/svg" xmlns:xlink="http://www.w3.org/1999/xlink" x="0px" y="0px"
	 viewBox="0 0 70 70" style="enable-background:new 0 0 70 70;" xml:space="preserve">
<style type="text/css">
	.st0{fill:#BAC0CA;}
</style>
<g>
	<path class="st0" d="M49.3,21.2v-2c0-0.2-0.1-0.3-0.3-0.3h-5.1c-0.2,0-0.3,0.1-0.3,0.3v1.9h-1.5v-1.9c0-0.2-0.1-0.3-0.3-0.3h-1.9
		c-0.2,0-0.3,0.1-0.3,0.3v1.9h-7.4L31,17.8h-7l-1.2,3.3h-0.6c-3.7,0-6.6,3-6.6,6.6v2.2v13.9c0,3.7,3,6.6,6.6,6.6h25.6
		c3.7,0,6.6-3,6.6-6.6V29.9v-2.2C54.5,24.5,52.3,21.9,49.3,21.2z M35,47.1c-4.2,0-7.6-3.4-7.6-7.6c0-4.2,3.4-7.6,7.6-7.6
		s7.6,3.4,7.6,7.6C42.6,43.7,39.2,47.1,35,47.1z M45,38.4h-1.8c-0.3-2.2-1.4-4.1-3-5.4H45c1.5,0,2.7,1.2,2.7,2.7S46.5,38.4,45,38.4z
		 M52,29.9H18.1v-2.2c0-2.3,1.8-4.1,4.1-4.1h25.6c2.3,0,4.1,1.8,4.1,4.1v2.2C51.9,29.9,52,29.9,52,29.9z"/>
	<path class="st0" d="M35,33.6c-3.2,0-5.9,2.6-5.9,5.9c0,3.2,2.6,5.9,5.9,5.9c3.2,0,5.9-2.6,5.9-5.9C40.9,36.3,38.3,33.6,35,33.6z"
		/>
	<rect x="21.7" y="24.7" class="st0" width="6.2" height="4.1"/>
	<rect x="28.8" y="24.7" class="st0" width="2" height="4.1"/>
</g>
</svg>
