<?xml version="1.0" encoding="utf-8"?>
<!-- Generator: Adobe Illustrator 27.3.1, SVG Export Plug-In . SVG Version: 6.00 Build 0)  -->
<svg version="1.1" id="Layer_1" xmlns="http://www.w3.org/2000/svg" xmlns:xlink="http://www.w3.org/1999/xlink" x="0px" y="0px"
	 viewBox="0 0 39 43" style="enable-background:new 0 0 39 43;" xml:space="preserve">
<style type="text/css">
	.st0{fill:#BAC0CA;}
</style>
<g>
	<path class="st0" d="M33.8,7.7v-2c0-0.2-0.1-0.3-0.3-0.3h-5.1c-0.2,0-0.3,0.1-0.3,0.3v1.9h-1.5V5.7c0-0.2-0.1-0.3-0.3-0.3h-1.9
		c-0.2,0-0.3,0.1-0.3,0.3v1.9h-7.4l-1.2-3.3h-7L7.3,7.6H6.7c-3.7,0-6.6,3-6.6,6.6v2.2v13.9c0,3.7,3,6.6,6.6,6.6h25.6
		c3.7,0,6.6-3,6.6-6.6V16.4v-2.2C39,11,36.8,8.4,33.8,7.7z M19.5,33.6c-4.2,0-7.6-3.4-7.6-7.6s3.4-7.6,7.6-7.6s7.6,3.4,7.6,7.6
		S23.7,33.6,19.5,33.6z M29.5,24.9h-1.8c-0.3-2.2-1.4-4.1-3-5.4h4.8c1.5,0,2.7,1.2,2.7,2.7S31,24.9,29.5,24.9z M36.5,16.4H2.6v-2.2
		c0-2.3,1.8-4.1,4.1-4.1h25.6c2.3,0,4.1,1.8,4.1,4.1v2.2H36.5z"/>
	<path class="st0" d="M19.5,20.1c-3.2,0-5.9,2.6-5.9,5.9c0,3.2,2.6,5.9,5.9,5.9c3.2,0,5.9-2.6,5.9-5.9
		C25.4,22.8,22.8,20.1,19.5,20.1z"/>
	<rect x="6.2" y="11.2" class="st0" width="6.2" height="4.1"/>
	<rect x="13.3" y="11.2" class="st0" width="2" height="4.1"/>
</g>
</svg>
