<?xml version="1.0" encoding="utf-8"?>
<!-- Generator: Adobe Illustrator 27.4.0, SVG Export Plug-In . SVG Version: 6.00 Build 0)  -->
<svg version="1.1" id="Layer_1" xmlns="http://www.w3.org/2000/svg" xmlns:xlink="http://www.w3.org/1999/xlink" x="0px" y="0px"
	 viewBox="0 0 168 45" style="enable-background:new 0 0 168 45;" xml:space="preserve">
<style type="text/css">
	.st0{fill:#0186FF;}
	.st1{fill:#3F4347;}
</style>
<g>
	<path class="st0" d="M7.4,18.4L7.4,18.4C7.6,12.2,12.7,7.2,19,7.2c6.4,0,11.6,5.2,11.6,11.6c0,5.2-3.4,9.6-8.1,11.1l6,6
		c1.3-1.2,2.4-2.3,3.2-3.1c3.7-3.6,6-8.6,6-14C37.6,8.5,29.3,0.1,19,0.1S0.4,8.5,0.4,18.7c0,4.6,1.7,8.9,4.4,12.3
		c0.6,0.8,1.5,1.8,2.6,2.8V18.4z"/>
	<path class="st0" d="M19,13.1c-3.2,0-5.7,2.6-5.7,5.7s2.6,5.7,5.7,5.7s5.7-2.6,5.7-5.7S22.2,13.1,19,13.1z"/>
	<path class="st0" d="M13.2,28.9v10.7c3.1,3,5.8,5.4,5.8,5.4s2.4-2.3,5.2-5.1L13.2,28.9z"/>
</g>
<g>
	<g>
		<path class="st1" d="M64.8,25.9c1.2-0.7,2.1-1.6,2.8-2.7c0.8-1.3,1.2-2.7,1.2-4.3c0-1.7-0.4-3.2-1.2-4.5c-0.8-1.3-1.9-2.3-3.2-3.1
			c-1.4-0.7-2.9-1.1-4.7-1.1h-7.9c-0.7,0-1.3,0.2-1.7,0.7c-0.5,0.5-0.7,1.1-0.7,1.8v21.8c0,0.7,0.2,1.3,0.7,1.7c1,1,2.6,0.9,3.5,0
			c0.5-0.5,0.7-1.1,0.7-1.7v-7.2h5.4c0.1,0,0.1,0,0.2,0l5.3,8.5c0.2,0.4,0.6,0.7,0.9,0.9c0.4,0.2,0.8,0.3,1.2,0.3
			c1.2,0,1.9-0.7,2.2-1.3c0.3-0.6,0.5-1.4-0.2-2.5L64.8,25.9z M63.5,20.7c-0.4,0.6-0.8,1-1.5,1.3c-0.6,0.3-1.4,0.5-2.3,0.5h-5.4
			v-7.7h5.4c0.9,0,1.6,0.2,2.2,0.5c0.6,0.3,1.1,0.8,1.5,1.4s0.5,1.3,0.5,2.1C64,19.6,63.9,20.2,63.5,20.7z"/>
	</g>
	<g>
		<path class="st1" d="M91.1,14.8c0.7,0,1.3-0.2,1.7-0.6c0.5-0.4,0.7-1,0.7-1.7s-0.2-1.3-0.7-1.7s-1-0.7-1.7-0.7H76.5
			c-0.7,0-1.3,0.2-1.7,0.7c-0.5,0.5-0.7,1.1-0.7,1.8v21.8c0,0.7,0.2,1.3,0.7,1.7c0.5,0.5,1.1,0.7,1.8,0.7h14.6
			c0.7,0,1.3-0.2,1.7-0.7c0.5-0.4,0.7-1,0.7-1.7s-0.2-1.2-0.7-1.7c-0.4-0.4-1-0.6-1.7-0.6H78.9v-6.5h8.5c0.7,0,1.3-0.2,1.7-0.7
			c0.5-0.4,0.7-1,0.7-1.7s-0.2-1.2-0.7-1.7c-0.5-0.4-1-0.7-1.7-0.7h-8.5v-6.3h12.2V14.8z"/>
	</g>
	<g>
		<path class="st1" d="M115.4,10.8c-0.5,0.5-0.7,1.1-0.7,1.8v15.3L102,11c-0.9-1.1-2.7-1.2-3.6-0.2c-0.5,0.5-0.7,1.1-0.7,1.8v21.8
			c0,0.7,0.2,1.3,0.7,1.7c0.9,1,2.6,0.9,3.5,0c0.4-0.5,0.7-1.1,0.7-1.7V19.2L115.3,36c0.2,0.3,0.6,0.5,0.9,0.7
			c0.3,0.1,0.7,0.2,1,0.2c0.7,0,1.3-0.3,1.8-0.7c0.4-0.5,0.7-1.1,0.7-1.7V12.6c0-0.7-0.2-1.3-0.7-1.8
			C118.1,9.9,116.4,9.9,115.4,10.8z"/>
	</g>
	<g>
		<path class="st1" d="M143.9,10.8c-0.4-0.4-1-0.7-1.7-0.7h-17.3c-0.7,0-1.2,0.2-1.7,0.7c-0.4,0.4-0.7,1-0.7,1.7s0.2,1.2,0.7,1.7
			c0.4,0.4,1,0.7,1.7,0.7h6.2v19.6c0,0.7,0.2,1.3,0.7,1.7c0.5,0.5,1.1,0.7,1.7,0.7c0.7,0,1.3-0.2,1.7-0.7c0.5-0.5,0.7-1.1,0.7-1.7
			V14.8h6.2c0.7,0,1.2-0.2,1.7-0.7c0.4-0.4,0.7-1,0.7-1.7C144.5,11.8,144.3,11.2,143.9,10.8z"/>
	</g>
	<g>
		<path class="st1" d="M157.6,36.9H148c-1.3,0-2.3-1-2.3-2.3s1-2.3,2.3-2.3h9.6c1.8,0,3.2-1.4,3.2-3.2s-1.4-3.2-3.2-3.2h-4.1
			c-4.3,0-7.8-3.5-7.8-7.8s3.5-7.8,7.8-7.8h8.2c1.3,0,2.3,1,2.3,2.3s-1,2.3-2.3,2.3h-8.2c-1.8,0-3.2,1.4-3.2,3.2s1.4,3.2,3.2,3.2
			h4.1c4.3,0,7.8,3.5,7.8,7.8S162,36.9,157.6,36.9z"/>
	</g>
</g>
</svg>
